<svg xmlns="http://www.w3.org/2000/svg" width="304.99" height="50"><path fill="#639C00" d="M62.83 22.62c4.3-2.079 6.73-5.479 6.73-10.34C69.56 3.05 63.18 0 53.74 0H18.8L0 49.539h11.03L24.25 11.85l13.08 37.689h17.1c8.95 0 17.49-4.299 17.49-14.359 0-6.18-3.05-10.83-9.09-12.56zM33.14 8.46h18.38c3.89 0 7.49.97 7.49 5.69 0 4.16-2.84 5.9-6.66 5.9h-3.99v-.01H37.47L33.14 8.46zm19.84 32.62h-7.65l-5.08-13.6h12.94c4.65 0 7.84 2.01 7.84 7.078 0 5.131-3.75 6.522-8.05 6.522z"/><path d="M79.659 30.212c-.053 3.005 1.536 5.737 4.691 5.737 2.41 0 4.127-1.438 4.571-3.795h.941c-.497 2.981-2.485 4.616-5.512 4.616-3.728 0-5.686-2.929-5.641-6.453-.052-3.501 1.792-6.905 5.641-6.905 3.999 0 5.791 3.155 5.61 6.806H79.659v-.006zm9.368-.821c-.053-2.681-1.74-5.166-4.669-5.166-2.831 0-4.496 2.628-4.691 5.166h9.36zm6.8-10.656V36.47h-.941V18.735h.941zm5.866 11.477c-.052 3.005 1.537 5.737 4.692 5.737 2.41 0 4.126-1.438 4.571-3.795h.941c-.497 2.981-2.485 4.616-5.512 4.616-3.728 0-5.686-2.929-5.641-6.453-.052-3.501 1.785-6.905 5.641-6.905 3.999 0 5.791 3.155 5.618 6.806h-10.31v-.006zm9.361-.821c-.045-2.681-1.74-5.166-4.669-5.166-2.832 0-4.496 2.628-4.692 5.166h9.361zm15.249-1.74c-.173-2.259-2.011-3.427-4.323-3.427-3.201 0-4.917 2.832-4.917 5.738 0 3.449 1.619 5.986 4.917 5.986 2.388 0 4.127-1.642 4.443-3.976h.941c-.422 3.058-2.636 4.797-5.392 4.797-4.149 0-5.859-3.252-5.859-6.808 0-3.555 2.086-6.559 5.866-6.559 2.756 0 4.993 1.34 5.264 4.248h-.94zm10.46-3.132h-2.777v8.916c0 2.063.971 2.259 2.755 2.214v.821c-1.935.128-3.802-.151-3.697-3.028v-8.923h-2.357v-.821h2.357v-3.976h.941v3.976h2.777v.821zm5.166 2.01h.076c.497-1.664 2.583-3.005 4.895-2.906v.941c-.995-.121-2.387.128-3.525 1.242-.941.971-1.341 1.762-1.438 3.674v6.98h-.941V23.705h.934v2.824zm13.714-3.125c3.75 0 5.866 3.058 5.866 6.68 0 3.63-2.108 6.679-5.859 6.679-3.749 0-5.858-3.057-5.858-6.679-.016-3.63 2.1-6.68 5.851-6.68zm0 12.538c3.208 0 4.917-2.81 4.917-5.858 0-3.05-1.717-5.859-4.917-5.859-3.201 0-4.917 2.81-4.917 5.859s1.709 5.858 4.917 5.858zM166.2 23.705h.941v2.733h.052c.648-1.913 2.584-3.027 4.571-3.027 4.496 0 4.549 3.601 4.549 5.167v7.899h-.941v-8.081c0-1.317-.151-4.172-3.63-4.172-2.854 0-4.594 2.207-4.594 5.34v6.905h-.941V23.705h-.007zm15.597-2.417v-2.553h.94v2.559h-.94v-.006zm0 15.182V23.705h.94V36.47h-.94zm16.047-8.819c-.173-2.259-2.011-3.427-4.322-3.427-3.201 0-4.918 2.832-4.918 5.738 0 3.449 1.612 5.986 4.918 5.986 2.388 0 4.127-1.642 4.45-3.976h.941c-.421 3.058-2.636 4.797-5.392 4.797-4.149 0-5.859-3.252-5.859-6.808 0-3.555 2.087-6.559 5.859-6.559 2.756 0 4.992 1.34 5.264 4.248h-.941zm6.205 4.572c.151 2.356 1.913 3.727 4.226 3.727 1.663 0 4.051-.497 4.051-2.711 0-2.162-2.184-2.485-4.376-2.931-2.206-.444-4.397-1.017-4.397-3.628 0-2.531 2.463-3.277 4.624-3.277 2.711 0 4.722 1.168 4.722 4.074h-.941c-.022-2.313-1.642-3.253-3.773-3.253-1.739 0-3.674.648-3.674 2.463 0 2.041 2.183 2.357 4.247 2.808 2.53.475 4.519 1.07 4.519 3.75 0 2.757-2.757 3.524-4.993 3.524-2.907 0-5.09-1.566-5.166-4.548h.934v.002z"/><path fill="#639C00" d="M232.312 31.706c0 3.367-1.928 5.144-5.256 5.144-3.44 0-5.482-1.589-5.482-5.144v-8.532h1.777v8.532c0 2.357 1.349 3.652 3.705 3.652 2.244 0 3.479-1.287 3.479-3.645v-8.54h1.776v8.533h.001zm4.713-8.532h1.777v6.657l6.77-6.657h2.306l-5.634 5.384 5.851 7.968h-2.243l-4.827-6.756-2.229 2.078v4.678h-1.776V23.174h.005z"/></svg>