<svg xmlns="http://www.w3.org/2000/svg" width="71.92" height="49.54" viewBox="1.34 .22 71.92 49.54"><path fill="#639C00" d="M64.17 22.84c4.3-2.08 6.73-5.48 6.73-10.34C70.9 3.27 64.52.22 55.08.22H20.14L1.34 49.76h11.03l13.22-37.69 13.08 37.69h17.1c8.95 0 17.49-4.3 17.49-14.359 0-6.18-3.05-10.831-9.09-12.561zM34.48 8.68h18.38c3.89 0 7.49.97 7.49 5.69 0 4.16-2.84 5.9-6.66 5.9H49.7v-.01H38.81L34.48 8.68zM54.32 41.3h-7.65l-5.08-13.6h12.94c4.65 0 7.84 2.01 7.84 7.079 0 5.131-3.75 6.521-8.05 6.521z"/></svg>