<?xml version="1.0" encoding="utf-8"?>
<!-- Generator: Adobe Illustrator 16.0.3, SVG Export Plug-In . SVG Version: 6.00 Build 0)  -->
<!DOCTYPE svg PUBLIC "-//W3C//DTD SVG 1.1//EN" "http://www.w3.org/Graphics/SVG/1.1/DTD/svg11.dtd">
<svg version="1.1" id="Layer_1" xmlns="http://www.w3.org/2000/svg" xmlns:xlink="http://www.w3.org/1999/xlink" x="0px" y="0px"
	 width="281px" height="109.402px" viewBox="0 -23.5 281 109.402" enable-background="new 0 -23.5 281 109.402"
	 xml:space="preserve">
<rect y="-23.5" fill="#309D76" width="281.016" height="35"/>
<g>
	<polygon fill="#FFFFFF" points="205.448,-3.089 208.793,-13.804 207.21,-13.804 203.852,-3.089 	"/>
	<polygon fill="#FFFFFF" points="202.503,-3.089 205.846,-13.804 204.264,-13.804 200.906,-3.089 	"/>
	<g>
		<path fill="#FFFFFF" d="M211.007-5.955c0.251,0.948,0.962,1.448,2.041,1.448c1.033,0,1.672-0.623,1.672-1.567
			c0-1.033-0.781-1.287-1.879-1.82c-1.88-0.915-2.913-1.626-2.913-3.222c0-1.702,1.258-2.896,3.181-2.896
			c1.565,0,2.645,0.635,3.043,1.745l-1.346,0.694c-0.415-0.651-0.901-0.961-1.567-0.961c-0.931,0-1.507,0.534-1.507,1.33
			c0,1.021,0.83,1.33,2.012,1.88c1.861,0.859,2.734,1.613,2.734,3.132c0,1.964-1.317,3.269-3.506,3.269
			c-1.804,0-2.983-0.859-3.34-2.396L211.007-5.955z"/>
		<polygon fill="#FFFFFF" points="221.773,-3.204 220.06,-3.204 220.06,-12.31 217.249,-12.31 217.249,-13.774 224.568,-13.774 
			224.568,-12.31 221.773,-12.31 		"/>
		<polygon fill="#FFFFFF" points="180.364,-3.204 178.644,-3.204 178.644,-12.31 175.838,-12.31 175.838,-13.774 183.157,-13.774 
			183.157,-12.31 180.364,-12.31 		"/>
		<path fill="#FFFFFF" d="M185.98-3.204h-1.612v-10.571h2.397c1.139,0,1.98,0.088,2.633,0.593c0.635,0.503,1.021,1.329,1.021,2.32
			c0,1.701-0.83,2.663-2.427,2.853l3.638,4.805h-1.939l-3.52-4.733h-0.19V-3.204z M186.397-9.266c1.507,0,2.261-0.178,2.261-1.448
			c0-1.3-0.725-1.583-2.261-1.583h-0.311v3.031H186.397z"/>
		<path fill="#FFFFFF" d="M193.31-13.774v6.418c0,1.905,0.891,2.866,2.634,2.866c1.745,0,2.634-0.961,2.634-2.866v-6.418h1.715
			v6.579c0,2.853-1.436,4.271-4.349,4.271c-2.912,0-4.331-1.418-4.331-4.271v-6.579H193.31z"/>
		<path fill="#FFFFFF" d="M179.262,3.401h-0.737v-4.813h1.03h0.156c0.492,0,0.881,0.012,1.206,0.25
			c0.297,0.216,0.483,0.614,0.483,1.076c0,0.465-0.19,0.868-0.483,1.084c-0.32,0.228-0.714,0.241-1.206,0.241h-0.156h-0.296v2.164
			H179.262z M179.508,0.603c0.72,0,1.084-0.08,1.084-0.639c0-0.58-0.354-0.699-1.084-0.699h-0.203v1.338H179.508z"/>
		<path fill="#FFFFFF" d="M185.809,2.165h-1.906l-0.559,1.241h-0.821l2.329-5l2.329,5h-0.832L185.809,2.165z M185.531,1.509
			l-0.489-1.097c-0.056-0.127-0.114-0.3-0.183-0.546c-0.059,0.241-0.124,0.419-0.174,0.546l-0.49,1.097H185.531z"/>
		<path fill="#FFFFFF" d="M189.83,1.2l-1.621-2.612h0.817l1.007,1.633c0.021,0.034,0.093,0.161,0.204,0.386
			c0.06-0.156,0.127-0.288,0.203-0.402l1.037-1.617h0.779L190.602,1.2v2.201h-0.771V1.2z"/>
		<path fill="#FFFFFF" d="M198.209,0.366c-0.042,0.229-0.114,0.445-0.225,0.665l-1.257,2.565l-1.258-2.621
			c-0.093-0.195-0.174-0.398-0.236-0.614c-0.01,0.229-0.042,0.453-0.089,0.665l-0.518,2.371h-0.72l1.14-5l1.422,3.023
			c0.043,0.089,0.127,0.305,0.263,0.652c0.094-0.271,0.203-0.482,0.274-0.652l1.389-3.023l1.165,5h-0.729l-0.532-2.375
			C198.275,0.938,198.256,0.722,198.209,0.366"/>
		<polygon fill="#FFFFFF" points="201.977,-1.412 204.666,-1.412 204.666,-0.743 202.757,-0.743 202.757,0.459 204.666,0.459 
			204.666,1.149 202.757,1.149 202.757,2.703 204.666,2.703 204.666,3.401 201.977,3.401 		"/>
		<path fill="#FFFFFF" d="M207.252-1.599l3.057,2.943c0.195,0.19,0.364,0.385,0.525,0.583v-3.34h0.72v5l-3.117-2.998
			c-0.172-0.168-0.328-0.351-0.465-0.537v3.344h-0.72V-1.599z"/>
		<polygon fill="#FFFFFF" points="215.902,3.401 215.123,3.401 215.123,-0.743 213.844,-0.743 213.844,-1.412 217.177,-1.412 
			217.177,-0.743 215.902,-0.743 		"/>
		<path fill="#FFFFFF" d="M219.407,2.152c0.113,0.432,0.436,0.661,0.928,0.661c0.469,0,0.762-0.284,0.762-0.716
			c0-0.47-0.355-0.584-0.854-0.83c-0.856-0.418-1.325-0.741-1.325-1.468c0-0.775,0.571-1.321,1.447-1.321
			c0.716,0,1.206,0.288,1.388,0.795l-0.613,0.318c-0.19-0.297-0.41-0.437-0.716-0.437c-0.424,0-0.686,0.241-0.686,0.605
			c0,0.466,0.376,0.606,0.915,0.856c0.846,0.389,1.245,0.732,1.245,1.427c0,0.894-0.603,1.486-1.597,1.486
			c-0.822,0-1.359-0.39-1.521-1.092L219.407,2.152z"/>
		<path fill="#FFFFFF" d="M170.613-18l-7.819,24.979h3.716L227.916,7v-25H170.613z M227.323,6.403h-60.635l7.436-23.81h53.196v23.81
			H227.323z"/>
		<polygon fill="#FFFFFF" points="164.965,-18 157.154,6.979 160.871,6.979 168.661,-18 		"/>
	</g>
	<g>
		<path fill="#FFFFFF" d="M230.237-18c0.41,0,0.777,0.166,1.046,0.432c0.268,0.267,0.432,0.64,0.432,1.046
			c0,0.411-0.164,0.779-0.432,1.046c-0.269,0.267-0.64,0.432-1.046,0.432c-0.41,0-0.778-0.165-1.047-0.432
			c-0.266-0.267-0.432-0.64-0.432-1.046c0-0.411,0.166-0.779,0.432-1.046C229.454-17.834,229.827-18,230.237-18L230.237-18z
			 M231.139-17.424c-0.232-0.233-0.55-0.376-0.905-0.376c-0.356,0-0.674,0.144-0.906,0.376s-0.378,0.55-0.378,0.906
			c0,0.355,0.146,0.672,0.378,0.906s0.55,0.377,0.906,0.377c0.355,0,0.673-0.144,0.905-0.377s0.376-0.551,0.376-0.906
			C231.515-16.874,231.371-17.196,231.139-17.424L231.139-17.424z"/>
		<path fill="#FFFFFF" d="M229.563-15.744h0.343v-0.495h0.263h0.005l0.333,0.495h0.399l-0.381-0.554
			c0.066-0.026,0.122-0.06,0.174-0.102c0.051-0.042,0.088-0.098,0.114-0.161c0.029-0.063,0.042-0.135,0.042-0.22v-0.005
			c0-0.072-0.013-0.14-0.034-0.199s-0.056-0.11-0.098-0.157c-0.051-0.051-0.114-0.089-0.19-0.118
			c-0.076-0.025-0.166-0.042-0.262-0.042h-0.712v1.558H229.563z M229.906-16.543v-0.445h0.339c0.056,0,0.103,0.009,0.145,0.025
			c0.038,0.017,0.072,0.042,0.093,0.072c0.021,0.034,0.034,0.072,0.034,0.123v0.004c0,0.042-0.01,0.081-0.029,0.114
			c-0.022,0.034-0.052,0.06-0.089,0.076c-0.038,0.017-0.085,0.025-0.146,0.03H229.906L229.906-16.543z"/>
	</g>
</g>
<g>
	<path fill="#FFFFFF" d="M37.313-11.055c0.503-0.084,1.163-0.156,2.003-0.156c1.031,0,1.787,0.24,2.267,0.672
		c0.444,0.384,0.708,0.971,0.708,1.691c0,0.731-0.216,1.307-0.624,1.727c-0.552,0.587-1.451,0.888-2.471,0.888
		c-0.312,0-0.6-0.012-0.839-0.072v3.238h-1.043V-11.055z M38.357-7.157c0.228,0.06,0.516,0.084,0.863,0.084
		c1.259,0,2.027-0.612,2.027-1.727c0-1.067-0.755-1.583-1.907-1.583c-0.456,0-0.804,0.036-0.983,0.084V-7.157z"/>
	<path fill="#FFFFFF" d="M46.564-3.067L46.48-3.799h-0.036c-0.324,0.456-0.947,0.863-1.775,0.863c-1.175,0-1.775-0.828-1.775-1.667
		c0-1.403,1.247-2.171,3.49-2.159v-0.12c0-0.479-0.132-1.343-1.319-1.343c-0.54,0-1.104,0.168-1.511,0.432l-0.24-0.695
		c0.48-0.312,1.175-0.516,1.907-0.516c1.775,0,2.207,1.211,2.207,2.375v2.171c0,0.503,0.024,0.995,0.096,1.391H46.564z M46.408-6.03
		c-1.151-0.024-2.458,0.18-2.458,1.307c0,0.684,0.456,1.008,0.996,1.008c0.755,0,1.235-0.48,1.403-0.972
		c0.036-0.108,0.06-0.228,0.06-0.336V-6.03z"/>
	<path fill="#FFFFFF" d="M49.421-8.872l1.271,3.43c0.132,0.384,0.276,0.839,0.372,1.187h0.024c0.108-0.348,0.228-0.792,0.372-1.211
		l1.151-3.406h1.115l-1.583,4.138c-0.756,1.991-1.271,3.01-1.991,3.634c-0.516,0.456-1.031,0.636-1.295,0.684l-0.264-0.887
		c0.264-0.084,0.612-0.252,0.924-0.516c0.288-0.228,0.647-0.635,0.887-1.175c0.048-0.108,0.084-0.192,0.084-0.251
		c0-0.06-0.024-0.144-0.072-0.276L48.27-8.872H49.421z"/>
	<path fill="#FFFFFF" d="M54.689-7.301c0-0.6-0.012-1.091-0.048-1.571h0.923l0.048,0.936h0.036c0.324-0.552,0.864-1.067,1.823-1.067
		c0.792,0,1.391,0.479,1.643,1.163h0.024c0.18-0.324,0.408-0.576,0.647-0.755c0.348-0.264,0.731-0.408,1.283-0.408
		c0.768,0,1.907,0.503,1.907,2.519v3.418h-1.032v-3.286c0-1.115-0.408-1.787-1.259-1.787c-0.6,0-1.067,0.444-1.247,0.959
		c-0.048,0.144-0.084,0.336-0.084,0.528v3.586h-1.031v-3.478c0-0.923-0.408-1.595-1.211-1.595c-0.66,0-1.14,0.528-1.308,1.056
		c-0.06,0.156-0.084,0.335-0.084,0.516v3.502h-1.031V-7.301z"/>
	<path fill="#FFFFFF" d="M65.285-5.778c0.024,1.427,0.935,2.015,1.991,2.015c0.755,0,1.211-0.132,1.607-0.3l0.18,0.756
		c-0.372,0.168-1.007,0.36-1.931,0.36c-1.787,0-2.854-1.176-2.854-2.927s1.032-3.13,2.723-3.13c1.895,0,2.399,1.667,2.399,2.734
		c0,0.216-0.024,0.384-0.036,0.492H65.285z M68.379-6.534c0.012-0.671-0.276-1.715-1.463-1.715c-1.067,0-1.535,0.983-1.619,1.715
		H68.379z"/>
	<path fill="#FFFFFF" d="M70.709-7.301c0-0.6-0.012-1.091-0.048-1.571h0.936l0.06,0.959h0.024c0.288-0.552,0.959-1.091,1.919-1.091
		c0.803,0,2.051,0.479,2.051,2.47v3.466h-1.056v-3.346c0-0.936-0.348-1.715-1.343-1.715c-0.695,0-1.235,0.492-1.415,1.079
		c-0.048,0.132-0.072,0.312-0.072,0.492v3.49h-1.056V-7.301z"/>
	<path fill="#FFFFFF" d="M78.593-10.539v1.667h1.511v0.803h-1.511v3.13c0,0.72,0.204,1.127,0.792,1.127
		c0.276,0,0.479-0.036,0.611-0.072l0.048,0.792c-0.204,0.084-0.528,0.144-0.936,0.144c-0.492,0-0.888-0.156-1.14-0.444
		c-0.3-0.312-0.408-0.828-0.408-1.511v-3.167h-0.899v-0.803h0.899v-1.392L78.593-10.539z"/>
	<path fill="#FFFFFF" d="M81.149-4.147c0.312,0.204,0.864,0.42,1.392,0.42c0.768,0,1.127-0.384,1.127-0.863
		c0-0.504-0.3-0.78-1.079-1.068c-1.043-0.372-1.535-0.947-1.535-1.643c0-0.935,0.755-1.703,2.003-1.703
		c0.587,0,1.104,0.167,1.427,0.359l-0.264,0.768c-0.228-0.144-0.647-0.335-1.187-0.335c-0.624,0-0.972,0.36-0.972,0.792
		c0,0.479,0.348,0.695,1.104,0.983c1.007,0.384,1.523,0.888,1.523,1.751c0,1.02-0.792,1.739-2.171,1.739
		c-0.635,0-1.223-0.156-1.631-0.396L81.149-4.147z"/>
	<path fill="#FFFFFF" d="M88.589-6.977c0-0.744-0.024-1.343-0.048-1.895h0.947l0.048,0.995h0.024
		c0.432-0.708,1.115-1.127,2.063-1.127c1.403,0,2.459,1.187,2.459,2.95c0,2.087-1.271,3.118-2.639,3.118
		c-0.768,0-1.439-0.336-1.787-0.912h-0.024v3.154h-1.043V-6.977z M89.632-5.43c0,0.156,0.024,0.3,0.048,0.432
		c0.192,0.732,0.828,1.235,1.583,1.235c1.116,0,1.763-0.911,1.763-2.243c0-1.163-0.612-2.159-1.727-2.159
		c-0.72,0-1.391,0.516-1.595,1.307c-0.036,0.132-0.072,0.288-0.072,0.432V-5.43z"/>
	<path fill="#FFFFFF" d="M100.67-6.018c0,2.146-1.487,3.082-2.89,3.082c-1.571,0-2.783-1.151-2.783-2.986
		c0-1.943,1.271-3.082,2.878-3.082C99.543-9.004,100.67-7.793,100.67-6.018z M96.064-5.958c0,1.271,0.732,2.231,1.763,2.231
		c1.007,0,1.763-0.947,1.763-2.255c0-0.983-0.492-2.23-1.739-2.23C96.604-8.212,96.064-7.061,96.064-5.958z"/>
	<path fill="#FFFFFF" d="M102.341-8.872l0.768,2.95c0.168,0.647,0.324,1.248,0.432,1.847h0.036c0.132-0.588,0.324-1.211,0.516-1.835
		l0.947-2.962h0.888l0.899,2.902c0.216,0.695,0.384,1.307,0.516,1.895h0.036c0.096-0.588,0.252-1.2,0.444-1.883l0.828-2.914h1.043
		l-1.871,5.805h-0.959l-0.888-2.771c-0.204-0.647-0.372-1.223-0.516-1.907h-0.024c-0.144,0.695-0.324,1.295-0.528,1.919
		l-0.936,2.758h-0.959l-1.751-5.805H102.341z"/>
	<path fill="#FFFFFF" d="M111.221-5.778c0.024,1.427,0.935,2.015,1.991,2.015c0.755,0,1.211-0.132,1.607-0.3l0.18,0.756
		c-0.372,0.168-1.007,0.36-1.931,0.36c-1.787,0-2.854-1.176-2.854-2.927s1.032-3.13,2.723-3.13c1.895,0,2.399,1.667,2.399,2.734
		c0,0.216-0.024,0.384-0.036,0.492H111.221z M114.315-6.534c0.012-0.671-0.276-1.715-1.463-1.715c-1.067,0-1.535,0.983-1.619,1.715
		H114.315z"/>
	<path fill="#FFFFFF" d="M116.645-7.061c0-0.684-0.012-1.271-0.048-1.811h0.923l0.036,1.139h0.048
		c0.264-0.779,0.899-1.271,1.607-1.271c0.12,0,0.204,0.012,0.3,0.036v0.996c-0.108-0.024-0.216-0.036-0.36-0.036
		c-0.744,0-1.271,0.564-1.416,1.355c-0.024,0.144-0.048,0.312-0.048,0.492v3.094h-1.043V-7.061z"/>
	<path fill="#FFFFFF" d="M121.037-5.778c0.024,1.427,0.936,2.015,1.991,2.015c0.755,0,1.211-0.132,1.607-0.3l0.18,0.756
		c-0.372,0.168-1.007,0.36-1.931,0.36c-1.787,0-2.854-1.176-2.854-2.927s1.032-3.13,2.723-3.13c1.895,0,2.399,1.667,2.399,2.734
		c0,0.216-0.024,0.384-0.036,0.492H121.037z M124.131-6.534c0.012-0.671-0.276-1.715-1.463-1.715c-1.067,0-1.535,0.983-1.619,1.715
		H124.131z"/>
	<path fill="#FFFFFF" d="M131.474-11.583v7.016c0,0.516,0.012,1.103,0.048,1.499h-0.947l-0.048-1.007h-0.024
		c-0.324,0.647-1.032,1.139-1.979,1.139c-1.403,0-2.483-1.188-2.483-2.95c-0.012-1.931,1.188-3.118,2.603-3.118
		c0.888,0,1.487,0.419,1.751,0.887h0.024v-3.466H131.474z M130.419-6.509c0-0.132-0.012-0.312-0.048-0.444
		c-0.156-0.672-0.731-1.224-1.523-1.224c-1.091,0-1.739,0.959-1.739,2.243c0,1.175,0.576,2.146,1.715,2.146
		c0.708,0,1.355-0.468,1.547-1.259c0.036-0.144,0.048-0.288,0.048-0.456V-6.509z"/>
	<path fill="#FFFFFF" d="M135.725-3.067c0.024-0.396,0.048-0.983,0.048-1.499v-7.016h1.043v3.646h0.024
		c0.372-0.648,1.043-1.067,1.979-1.067c1.439,0,2.458,1.199,2.447,2.962c0,2.075-1.308,3.106-2.603,3.106
		c-0.84,0-1.511-0.324-1.943-1.091h-0.036l-0.048,0.959H135.725z M136.816-5.394c0,0.132,0.024,0.264,0.048,0.384
		c0.204,0.731,0.815,1.235,1.583,1.235c1.104,0,1.763-0.899,1.763-2.231c0-1.163-0.6-2.159-1.727-2.159
		c-0.72,0-1.391,0.492-1.607,1.295c-0.024,0.12-0.06,0.264-0.06,0.432V-5.394z"/>
	<path fill="#FFFFFF" d="M142.9-8.872l1.271,3.43c0.132,0.384,0.275,0.839,0.371,1.187h0.024c0.108-0.348,0.228-0.792,0.372-1.211
		l1.15-3.406h1.117l-1.584,4.138c-0.756,1.991-1.271,3.01-1.991,3.634c-0.516,0.456-1.031,0.636-1.295,0.684l-0.265-0.887
		c0.265-0.084,0.612-0.252,0.924-0.516c0.288-0.228,0.648-0.635,0.888-1.175c0.048-0.108,0.084-0.192,0.084-0.251
		c0-0.06-0.024-0.144-0.071-0.276l-2.147-5.349H142.9z"/>
</g>
<g>
	<g>
		<path fill="#336699" d="M253.736,35.976l-1,0.5c-0.898,0.367-1.904,0.367-2.801,0c-0.301-0.2-0.5-0.5-0.5-1s0.1-1,0.4-1.2
			c0.199-0.399,0.6-0.6,1-0.8l1.799-0.399l1.9-0.2c0.1,0,0.201,0,0.201,0.3l-0.5,2.2C254.236,35.577,253.936,35.876,253.736,35.976z
			 M258.336,26.176c-1-0.5-2.5-0.8-4.6-0.8c-1,0-2,0-3.102,0.2l-1.398,0.3c-1,0.2-1.102,1.2-1.102,1.2l-0.299,1.3
			c-0.201,0.8,0.299,0.8,0.5,0.7l1.5-0.4c0.9-0.2,1.799-0.4,2.5-0.4c1,0,1.799,0.101,2.299,0.4c0.5,0.2,0.801,0.6,0.801,1.1v0.4
			l-0.4,0.2l-3.799,0.399c-1.143,0.173-2.254,0.51-3.301,1c-1,0.4-1.8,1-2.3,1.7c-0.5,0.8-0.7,1.7-0.7,2.7s0.4,1.8,1,2.5
			c0.771,0.681,1.773,1.039,2.801,1l1.6-0.2c0.814-0.21,1.59-0.548,2.299-1l1-0.7v0.4c-0.199,0.6,0.102,1,0.602,1h2.5
			c0.6,0,1-0.5,1.199-1l1.801-8v-0.7l0.1-0.6c0-1.2-0.5-2-1.5-2.601"/>
		<path fill="#1C3664" d="M225.736,25.577c-0.5,0-1.201,0.399-1.601,1l-4,7c-0.2,0.3-0.399,0-0.5,0l-1.101-7
			c-0.199-0.5-0.699-1-1.399-1h-2.399c-0.5,0-0.9,0.399-0.701,1l2,12.399c0.201,1.3,0,1.5,0,1.5l-2.199,4c-0.4,0.601-0.2,1,0.4,1
			h2.5c0.6,0,1.299-0.399,1.699-1l10.301-17.5c0,0,1-1.399,0-1.399H225.736 M198.736,23.876c-0.4-0.601-0.801-1.101-1.5-1.5
			c-0.601-0.4-1.301-0.7-2.201-0.8c-0.899-0.2-1.899-0.301-3-0.301h-5.5c-0.5,0-1.1,0.5-1.199,1l-3.6,15.9
			c-0.101,0.5,0.299,1,0.799,1h2.601c0.601,0,1.101-0.5,1.2-1l1-3.9c0-0.5,0.6-1,1.199-1h0.701c3.199,0,5.6-0.6,7.399-1.899
			c1.712-1.128,2.73-3.051,2.7-5.101c0-1-0.2-1.699-0.5-2.399 M193.236,29.176c-0.801,0.6-1.9,0.9-3.301,0.9h-0.6
			c-0.6,0-1-0.5-0.801-1l0.701-3.4c0.199-0.5,0.699-1,1.299-1h0.801c1,0,1.8,0.2,2.3,0.5c0.5,0.4,0.7,0.9,0.7,1.6
			C194.336,27.776,194.035,28.577,193.236,29.176"/>
		<path fill="#336699" d="M245.836,23.976c-0.328-0.613-0.811-1.13-1.4-1.5c-0.6-0.399-1.4-0.7-2.199-0.899l-3.101-0.2h-5.399
			c-0.601,0-1.101,0.399-1.301,1l-3.6,15.8c-0.1,0.5,0.199,1,0.8,1h2.601c0.5,0,1-0.5,1.199-1l0.9-3.9c0.1-0.5,0.699-1,1.199-1
			h0.801c3.199,0,5.6-0.6,7.4-2c1.699-1.199,2.6-3,2.6-5c0.035-0.828-0.137-1.653-0.5-2.399 M240.236,29.176
			c-0.701,0.5-1.801,0.8-3.201,0.8h-0.699c-0.5,0-0.9-0.399-0.801-1l0.801-3.3c0.1-0.6,0.699-1,1.199-1h0.9c1,0,1.7,0.2,2.2,0.5
			c0.601,0.3,0.8,0.8,0.8,1.5C241.436,27.676,241.035,28.577,240.236,29.176"/>
		<path fill="#1C3664" d="M206.736,35.876l-1,0.6c-0.927,0.395-1.975,0.395-2.9,0c-0.301-0.2-0.5-0.5-0.5-1s0.1-1,0.4-1.3l1.1-0.7
			l1.699-0.399l2-0.2c0,0,0.201,0,0.101,0.3l-0.5,2.2C207.136,35.577,206.836,35.876,206.736,35.876z M211.336,26.176
			c-1-0.5-2.6-0.8-4.7-0.8c-1,0-2,0-3.101,0.2l-1.299,0.3c-1,0.2-1.201,1.2-1.201,1.2l-0.299,1.3c-0.201,0.8,0.299,0.8,0.5,0.7
			l1.6-0.5l2.4-0.301c1,0,1.799,0.101,2.299,0.301c0.601,0.3,0.801,0.699,0.801,1.199v0.4c0,0-0.1,0.2-0.4,0.2
			c-1.271,0.075-2.539,0.209-3.8,0.399c-1.142,0.173-2.254,0.51-3.3,1c-1,0.4-1.7,1-2.2,1.7s-0.8,1.601-0.8,2.7c0,1,0.4,1.8,1,2.5
			c0.785,0.645,1.786,0.967,2.8,0.9c0.7,0,1.2,0,1.601-0.2c0.849-0.2,1.659-0.538,2.399-1l1-0.601l-0.2,0.4c0,0.5,0.2,1,0.7,1h2.601
			c0.5,0,1-0.5,1.1-1l1.9-8.1v-0.7l0.1-0.601c0-1.199-0.5-2-1.4-2.6"/>
		<path fill="#336699" d="M267.336,21.476h-2.301c-0.6,0-1.1,0.4-1.299,1l-0.102,0.7l-3.199,14.4l-0.199,0.6c0,0.6,0.199,1,0.699,1
			h2.4c0.6,0,1.1-0.4,1.299-0.9l3.5-15.8C268.135,21.976,267.836,21.476,267.336,21.476 M271.736,24.676
			c-0.162,0.053-0.33,0.086-0.5,0.1c-0.301,0-0.5,0-0.602-0.199l-0.199-0.7v-1.3h-0.301v-0.4h0.301v-0.7h0.4v0.7h0.9v0.4h-1v1.6
			h0.199l0.301,0.1h0.398v0.301 M275.836,24.577h-0.5v-1.4v-0.3v-0.2l-0.201-0.2h-0.299h-0.301l-0.4,0.3
			c0.004,0.066,0.004,0.134,0,0.2v1.7h-0.398v-1.5v-0.3v-0.2l-0.201-0.2h-0.6c-0.145,0.083-0.279,0.184-0.4,0.3v1.801h-0.4v-2.4h0.4
			v0.3l0.4-0.3c0.283-0.143,0.617-0.143,0.9,0l0.199,0.4l0.5-0.301l0.5-0.1c0.201,0,0.4,0,0.6,0.2l0.201,0.7v1.6"/>
	</g>
	<g>
		<path d="M126.699,42.261v-1.659c0-0.636-0.388-1.051-1.051-1.051c-0.332,0-0.691,0.111-0.94,0.47
			c-0.193-0.304-0.47-0.47-0.885-0.47c-0.276,0-0.554,0.083-0.774,0.387v-0.332h-0.581v2.655h0.581v-1.466
			c0-0.47,0.249-0.691,0.636-0.691c0.388,0,0.581,0.249,0.581,0.691v1.466h0.581v-1.466c0-0.47,0.276-0.691,0.636-0.691
			c0.387,0,0.581,0.249,0.581,0.691v1.466H126.699L126.699,42.261z M135.299,39.606h-0.94v-0.802h-0.58v0.802h-0.526v0.525h0.526
			v1.217c0,0.608,0.248,0.968,0.912,0.968c0.249,0,0.525-0.083,0.719-0.193l-0.166-0.498c-0.166,0.111-0.359,0.138-0.497,0.138
			c-0.277,0-0.388-0.166-0.388-0.442v-1.189h0.94V39.606L135.299,39.606z M140.222,39.551c-0.332,0-0.553,0.166-0.691,0.387v-0.332
			h-0.581v2.655h0.581v-1.494c0-0.442,0.193-0.691,0.552-0.691c0.11,0,0.249,0.027,0.359,0.055l0.166-0.553
			C140.498,39.551,140.332,39.551,140.222,39.551L140.222,39.551L140.222,39.551z M132.783,39.828
			c-0.276-0.194-0.664-0.277-1.078-0.277c-0.664,0-1.106,0.332-1.106,0.857c0,0.443,0.332,0.691,0.912,0.774l0.277,0.028
			c0.304,0.055,0.47,0.138,0.47,0.276c0,0.193-0.221,0.332-0.608,0.332s-0.691-0.139-0.885-0.277l-0.276,0.443
			c0.304,0.221,0.719,0.332,1.134,0.332c0.774,0,1.217-0.359,1.217-0.857c0-0.47-0.359-0.719-0.913-0.802l-0.276-0.028
			c-0.249-0.027-0.442-0.083-0.442-0.249c0-0.193,0.193-0.304,0.498-0.304c0.332,0,0.663,0.138,0.829,0.221L132.783,39.828
			L132.783,39.828z M148.214,39.551c-0.332,0-0.553,0.166-0.691,0.387v-0.332h-0.581v2.655h0.581v-1.494
			c0-0.442,0.193-0.691,0.553-0.691c0.11,0,0.249,0.027,0.359,0.055l0.166-0.553C148.49,39.551,148.324,39.551,148.214,39.551
			L148.214,39.551L148.214,39.551z M140.802,40.934c0,0.802,0.554,1.383,1.411,1.383c0.387,0,0.663-0.083,0.939-0.304l-0.276-0.47
			c-0.221,0.166-0.442,0.249-0.691,0.249c-0.47,0-0.802-0.332-0.802-0.857c0-0.498,0.332-0.83,0.802-0.857
			c0.249,0,0.471,0.083,0.691,0.249l0.276-0.47c-0.276-0.221-0.553-0.304-0.939-0.304C141.355,39.551,140.802,40.132,140.802,40.934
			L140.802,40.934L140.802,40.934z M146.167,40.934v-1.327h-0.58v0.332c-0.194-0.249-0.471-0.387-0.83-0.387
			c-0.747,0-1.327,0.581-1.327,1.383c0,0.802,0.58,1.383,1.327,1.383c0.388,0,0.664-0.138,0.83-0.387v0.332h0.58V40.934z
			 M144.038,40.934c0-0.47,0.304-0.857,0.802-0.857c0.47,0,0.802,0.359,0.802,0.857c0,0.47-0.332,0.857-0.802,0.857
			C144.342,41.763,144.038,41.404,144.038,40.934L144.038,40.934z M137.097,39.551c-0.774,0-1.328,0.553-1.328,1.383
			s0.554,1.383,1.355,1.383c0.387,0,0.774-0.11,1.078-0.359l-0.276-0.415c-0.221,0.166-0.497,0.277-0.774,0.277
			c-0.359,0-0.719-0.167-0.802-0.636h1.964v-0.221C138.341,40.104,137.843,39.551,137.097,39.551L137.097,39.551L137.097,39.551z
			 M137.097,40.049c0.359,0,0.608,0.221,0.663,0.636h-1.383C136.433,40.325,136.682,40.049,137.097,40.049L137.097,40.049z
			 M151.505,40.934v-2.378h-0.581v1.383c-0.193-0.249-0.47-0.387-0.829-0.387c-0.747,0-1.328,0.581-1.328,1.383
			c0,0.802,0.581,1.383,1.328,1.383c0.387,0,0.663-0.138,0.829-0.387v0.332h0.581V40.934z M149.375,40.934
			c0-0.47,0.305-0.857,0.802-0.857c0.471,0,0.803,0.359,0.803,0.857c0,0.47-0.332,0.857-0.803,0.857
			C149.68,41.763,149.375,41.404,149.375,40.934L149.375,40.934z M129.962,40.934v-1.327h-0.581v0.332
			c-0.193-0.249-0.471-0.387-0.83-0.387c-0.746,0-1.327,0.581-1.327,1.383c0,0.802,0.581,1.383,1.327,1.383
			c0.388,0,0.664-0.138,0.83-0.387v0.332h0.581V40.934z M127.805,40.934c0-0.47,0.304-0.857,0.802-0.857
			c0.47,0,0.802,0.359,0.802,0.857c0,0.47-0.332,0.857-0.802,0.857C128.109,41.763,127.805,41.404,127.805,40.934z"/>
		<rect x="132.589" y="19.446" fill="#FF5F00" width="8.71" height="15.653"/>
		<path fill="#EB001B" d="M133.142,27.272c0-3.18,1.493-6.001,3.789-7.826c-1.688-1.327-3.816-2.129-6.14-2.129
			c-5.503,0-9.956,4.452-9.956,9.956s4.453,9.956,9.956,9.956c2.323,0,4.452-0.802,6.14-2.129
			C134.635,33.301,133.142,30.453,133.142,27.272z"/>
		<path fill="#F79E1B" d="M153.054,27.272c0,5.503-4.453,9.956-9.956,9.956c-2.323,0-4.452-0.802-6.139-2.129
			c2.323-1.826,3.789-4.646,3.789-7.827c0-3.18-1.494-6.001-3.789-7.826c1.688-1.327,3.816-2.129,6.139-2.129
			C148.601,17.316,153.054,21.796,153.054,27.272z"/>
	</g>
	<g>
		<path fill="#0E4595" d="M33.613,43.321l3.962-23.25h6.338l-3.965,23.25H33.613z M62.845,20.572
			c-1.255-0.471-3.223-0.976-5.68-0.976c-6.263,0-10.672,3.153-10.711,7.673c-0.035,3.341,3.149,5.205,5.553,6.317
			c2.467,1.14,3.296,1.866,3.285,2.884c-0.016,1.558-1.971,2.271-3.792,2.271c-2.536,0-3.884-0.353-5.965-1.221l-0.816-0.369
			l-0.89,5.205c1.48,0.648,4.218,1.211,7.06,1.24c6.662,0,10.987-3.117,11.036-7.943c0.023-2.646-1.665-4.658-5.321-6.318
			c-2.215-1.075-3.572-1.793-3.557-2.883c0-0.966,1.148-1.999,3.629-1.999c2.073-0.033,3.574,0.419,4.744,0.891l0.567,0.268
			L62.845,20.572 M79.152,20.071h-4.896c-1.517,0-2.652,0.415-3.318,1.928l-9.412,21.308h6.654c0,0,1.088-2.865,1.334-3.493
			c0.728,0,7.192,0.009,8.116,0.009c0.19,0.814,0.772,3.484,0.772,3.484h5.88L79.152,20.071L79.152,20.071z M71.383,35.084
			c0.524-1.338,2.525-6.499,2.525-6.499c-0.038,0.062,0.521-1.346,0.84-2.22l0.429,2.004c0,0,1.213,5.55,1.467,6.714H71.383
			L71.383,35.084L71.383,35.084z M28.234,20.071L22.03,35.926l-0.661-3.221c-1.156-3.714-4.754-7.739-8.777-9.753l5.673,20.333
			l6.705-0.007l9.978-23.207H28.234"/>
		<path fill="#F2AE14" d="M16.24,20.07H6.021l-0.082,0.483c7.951,1.926,13.211,6.576,15.396,12.165l-2.222-10.684
			c-0.383-1.473-1.496-1.913-2.873-1.963"/>
	</g>
</g>
<g>
	<g>
		<g>
			<path fill="#5F6368" d="M196.645,70.561v8.792h-2.791V57.638h7.398c1.784-0.038,3.509,0.639,4.791,1.879
				c1.297,1.168,2.027,2.839,2,4.582c0.037,1.757-0.693,3.44-2,4.611c-1.295,1.234-2.893,1.851-4.791,1.848L196.645,70.561
				L196.645,70.561z M196.645,60.312v7.582h4.676c1.039,0.032,2.039-0.377,2.76-1.124c1.465-1.424,1.5-3.769,0.073-5.233
				c-0.025-0.025-0.048-0.051-0.073-0.072c-0.711-0.764-1.718-1.181-2.76-1.152H196.645L196.645,60.312z M214.473,64.011
				c2.063,0,3.689,0.551,4.883,1.651c1.193,1.102,1.788,2.615,1.788,4.532v9.158h-2.668v-2.063h-0.12
				c-1.154,1.699-2.693,2.547-4.61,2.547c-1.636,0-3.007-0.483-4.107-1.455c-1.069-0.902-1.678-2.237-1.652-3.64
				c0-1.538,0.583-2.759,1.743-3.667c1.162-0.908,2.713-1.364,4.656-1.364c1.654,0,3.021,0.304,4.091,0.908v-0.639
				c0.007-0.956-0.417-1.861-1.151-2.469c-0.737-0.665-1.699-1.028-2.693-1.017c-1.557,0-2.791,0.659-3.699,1.973l-2.455-1.548
				C209.824,64.979,211.824,64.011,214.473,64.011L214.473,64.011z M210.862,74.805c-0.003,0.722,0.341,1.398,0.924,1.819
				c0.617,0.484,1.383,0.744,2.167,0.728c1.178-0.003,2.308-0.471,3.14-1.303c0.925-0.871,1.386-1.89,1.386-3.063
				c-0.869-0.693-2.082-1.042-3.639-1.042c-1.133,0-2.079,0.272-2.836,0.82C211.242,73.32,210.862,73.994,210.862,74.805
				L210.862,74.805z M236.46,64.495l-9.313,21.407h-2.879l3.455-7.49l-6.127-13.917h3.031l4.428,10.674h0.061l4.307-10.674H236.46z"
				/>
		</g>
		<path fill="#4285F4" d="M185.369,68.662c0-0.851-0.07-1.699-0.215-2.537h-11.766v4.804h6.736c-0.278,1.551-1.177,2.921-2.49,3.791
			v3.12h4.021C184.012,75.672,185.369,72.46,185.369,68.662L185.369,68.662z"/>
		<path fill="#34A853" d="M173.389,80.855c3.366,0,6.201-1.104,8.268-3.013l-4.021-3.12c-1.12,0.759-2.561,1.192-4.246,1.192
			c-3.254,0-6.016-2.192-7.004-5.147h-4.143v3.215C164.359,78.197,168.673,80.855,173.389,80.855z"/>
		<path fill="#FBBC04" d="M166.385,70.768c-0.521-1.549-0.521-3.229,0-4.775v-3.216h-4.143c-1.771,3.525-1.771,7.681,0,11.206
			L166.385,70.768z"/>
		<path fill="#EA4335" d="M173.389,60.843c1.777-0.028,3.496,0.643,4.784,1.871l3.563-3.561c-2.26-2.121-5.25-3.285-8.348-3.25
			c-4.716,0-9.029,2.661-11.146,6.873l4.143,3.216C167.373,63.036,170.135,60.843,173.389,60.843z"/>
	</g>
	<g>
		<path d="M58.691,59.635c0.82-1.055,1.406-2.461,1.23-3.867c-1.23,0.059-2.695,0.82-3.574,1.816
			c-0.762,0.879-1.464,2.344-1.289,3.691C56.464,61.451,57.812,60.689,58.691,59.635 M59.921,61.627
			c-1.992-0.117-3.691,1.113-4.628,1.113c-0.938,0-2.403-1.055-3.984-1.055c-2.052,0.059-3.926,1.172-4.98,3.047
			c-2.11,3.691-0.586,9.141,1.523,12.129c0.995,1.465,2.226,3.104,3.808,3.047c1.523-0.059,2.109-0.996,3.925-0.996
			c1.817,0,2.344,0.996,3.985,0.938s2.695-1.465,3.691-2.988c1.172-1.699,1.64-3.34,1.64-3.398c-0.058-0.059-3.222-1.23-3.222-4.863
			c-0.058-3.047,2.461-4.512,2.578-4.57C62.909,61.92,60.683,61.686,59.921,61.627"/>
		<g>
			<path d="M77.147,57.467c4.336,0,7.325,2.988,7.325,7.266c0,4.336-3.046,7.324-7.442,7.324h-4.746v7.558h-3.457V57.467H77.147z
				 M72.284,69.186h3.926c2.988,0,4.687-1.641,4.687-4.395c0-2.813-1.699-4.395-4.687-4.395h-3.985v8.789H72.284z M85.35,75.104
				c0-2.813,2.169-4.57,6.036-4.805l4.453-0.234v-1.23c0-1.816-1.229-2.871-3.222-2.871c-1.934,0-3.106,0.938-3.398,2.344h-3.165
				c0.176-2.93,2.694-5.098,6.679-5.098c3.926,0,6.445,2.051,6.445,5.332v11.133h-3.163v-2.637h-0.058
				c-0.938,1.816-2.989,2.929-5.099,2.929C87.577,79.966,85.35,77.975,85.35,75.104z M95.838,73.639V72.35l-3.984,0.234
				c-1.991,0.117-3.106,0.996-3.106,2.402s1.173,2.344,2.931,2.344C94.022,77.33,95.838,75.748,95.838,73.639z M102.108,85.65
				v-2.695c0.235,0.058,0.821,0.058,1.055,0.058c1.523,0,2.344-0.644,2.871-2.284c0-0.059,0.293-0.996,0.293-0.996l-5.859-16.172
				h3.574l4.103,13.184h0.058l4.101-13.184h3.516l-6.034,17.051c-1.407,3.926-2.988,5.156-6.329,5.156
				C103.221,85.708,102.401,85.708,102.108,85.65z"/>
		</g>
	</g>
</g>
</svg>
